<mxfile host="app.diagrams.net" modified="2023-08-21T19:55:51.174Z" agent="Mozilla/5.0 (Macintosh; Intel Mac OS X 10_15_7) AppleWebKit/537.36 (KHTML, like Gecko) Chrome/115.0.0.0 Safari/537.36" version="21.6.8" etag="FUPqO0CmpUzdoquOe6eQ" type="github">
  <diagram name="PÃ¡gina-1" id="pLbmzs-tCkocFzSn-4DI">
    <mxGraphModel>
      <root>
        <mxCell id="0" />
        <mxCell id="1" parent="0" />
      </root>
    </mxGraphModel>
  </diagram>
</mxfile>
